<svg width="734" height="703" viewBox="0 0 734 703" fill="none" xmlns="http://www.w3.org/2000/svg">
<path d="M618.532 185.751H413.775V184.679C413.775 183.844 413.444 183.043 412.853 182.453C412.263 181.863 411.462 181.531 410.627 181.531H324.079C323.244 181.531 322.443 181.863 321.853 182.453C321.262 183.043 320.931 183.844 320.931 184.679V185.751H115.33C111.657 185.751 108.134 187.21 105.536 189.808C102.939 192.405 101.48 195.928 101.48 199.601V479.976C101.48 483.65 102.939 487.172 105.536 489.77C108.134 492.367 111.657 493.827 115.33 493.827H618.532C622.205 493.827 625.728 492.367 628.325 489.77C630.923 487.172 632.382 483.65 632.382 479.976V199.601C632.382 195.928 630.923 192.405 628.326 189.808C625.728 187.21 622.205 185.751 618.532 185.751Z" fill="#3F3D56"/>
<path d="M126.345 215.228C126.001 215.229 125.672 215.366 125.429 215.609C125.186 215.852 125.049 216.181 125.049 216.525V482.467C125.049 482.81 125.186 483.139 125.429 483.382C125.672 483.625 126.001 483.762 126.345 483.762H607.517C607.861 483.762 608.19 483.626 608.433 483.383C608.676 483.14 608.813 482.81 608.813 482.467V216.525C608.813 216.181 608.676 215.852 608.433 215.608C608.19 215.365 607.861 215.229 607.517 215.228H126.345Z" fill="#4D868D"/>
<path d="M366.509 202.632C369.306 202.632 371.573 200.365 371.573 197.568C371.573 194.771 369.306 192.504 366.509 192.504C363.712 192.504 361.445 194.771 361.445 197.568C361.445 200.365 363.712 202.632 366.509 202.632Z" fill="#4D868D"/>
<path d="M641.604 474.93H593.416V469.954C593.416 469.68 593.108 469.459 592.727 469.459H576.206C575.825 469.459 575.517 469.68 575.517 469.954V474.93H565.191V469.954C565.191 469.68 564.883 469.459 564.503 469.459H547.981C547.601 469.459 547.293 469.68 547.293 469.954V474.93H536.967V469.954C536.967 469.68 536.658 469.459 536.278 469.459H519.757C519.376 469.459 519.068 469.68 519.068 469.954V474.93H508.742V469.954C508.742 469.68 508.434 469.459 508.054 469.459H491.532C491.152 469.459 490.844 469.68 490.844 469.954V474.93H480.518V469.954C480.518 469.68 480.209 469.459 479.829 469.459H463.307C462.927 469.459 462.619 469.68 462.619 469.954V474.93H452.293V469.954C452.293 469.68 451.985 469.459 451.605 469.459H435.083C434.703 469.459 434.395 469.68 434.395 469.954V474.93H424.069V469.954C424.069 469.68 423.76 469.459 423.38 469.459H293.96C293.58 469.459 293.272 469.68 293.272 469.954V474.93H282.946V469.954C282.946 469.68 282.638 469.459 282.258 469.459H265.736C265.356 469.459 265.047 469.68 265.047 469.954V474.93H254.721V469.954C254.721 469.68 254.413 469.459 254.033 469.459H237.511C237.131 469.459 236.823 469.68 236.823 469.954V474.93H226.497V469.954C226.497 469.68 226.189 469.459 225.808 469.459H209.287C208.907 469.459 208.598 469.68 208.598 469.954V474.93H198.272V469.954C198.272 469.68 197.964 469.459 197.584 469.459H181.062C180.682 469.459 180.374 469.68 180.374 469.954V474.93H170.048V469.954C170.048 469.68 169.74 469.459 169.359 469.459H152.838C152.457 469.459 152.149 469.68 152.149 469.954V474.93H141.823V469.954C141.823 469.68 141.515 469.459 141.135 469.459H124.613C124.233 469.459 123.925 469.68 123.925 469.954V474.93H92.2582C83.1336 474.93 75.7366 480.248 75.7366 486.807V492.177C75.7366 498.737 83.1336 504.054 92.2582 504.054H641.604C650.729 504.054 658.126 498.737 658.126 492.177V486.807C658.126 480.248 650.729 474.93 641.604 474.93Z" fill="#3F3D56"/>
<path d="M310.909 327.114H168.686C168.389 327.114 168.104 326.996 167.894 326.786C167.684 326.576 167.566 326.291 167.566 325.994C167.566 325.697 167.684 325.413 167.894 325.203C168.104 324.993 168.389 324.875 168.686 324.875H310.909C311.206 324.875 311.491 324.993 311.701 325.203C311.911 325.413 312.029 325.697 312.029 325.994C312.029 326.291 311.911 326.576 311.701 326.786C311.491 326.996 311.206 327.114 310.909 327.114Z" fill="#F2F2F2"/>
<path d="M310.909 351.752H168.686C168.389 351.752 168.104 351.634 167.894 351.424C167.684 351.214 167.566 350.929 167.566 350.632C167.566 350.335 167.684 350.05 167.894 349.84C168.104 349.63 168.389 349.512 168.686 349.512H310.909C311.206 349.512 311.491 349.63 311.701 349.84C311.911 350.05 312.029 350.335 312.029 350.632C312.029 350.929 311.911 351.214 311.701 351.424C311.491 351.634 311.206 351.752 310.909 351.752Z" fill="#F2F2F2"/>
<path d="M310.909 376.389H168.685C168.538 376.389 168.392 376.36 168.256 376.304C168.12 376.248 167.996 376.166 167.891 376.062C167.787 375.958 167.704 375.834 167.648 375.698C167.591 375.562 167.562 375.416 167.562 375.269C167.562 375.121 167.591 374.976 167.648 374.839C167.704 374.703 167.787 374.58 167.891 374.476C167.996 374.372 168.12 374.289 168.256 374.233C168.392 374.177 168.538 374.148 168.685 374.149H310.909C311.057 374.148 311.203 374.177 311.339 374.233C311.475 374.289 311.599 374.372 311.703 374.476C311.808 374.58 311.89 374.703 311.947 374.839C312.003 374.976 312.032 375.121 312.032 375.269C312.032 375.416 312.003 375.562 311.947 375.698C311.89 375.834 311.808 375.958 311.703 376.062C311.599 376.166 311.475 376.248 311.339 376.304C311.203 376.36 311.057 376.389 310.909 376.389Z" fill="#F2F2F2"/>
<path d="M552.242 262.722H376.422C374.566 262.722 373.062 264.226 373.062 266.081V435.182C373.062 437.037 374.566 438.542 376.422 438.542H552.242C554.097 438.542 555.601 437.037 555.601 435.182V266.081C555.601 264.226 554.097 262.722 552.242 262.722Z" fill="white"/>
<path d="M409.614 355.771C410.216 345.122 414.581 335.033 421.93 327.303C429.279 319.573 439.135 314.704 449.74 313.564C460.345 312.424 471.01 315.088 479.834 321.081C488.657 327.073 495.066 336.004 497.917 346.282C498.462 346.263 499.007 346.241 499.557 346.241C501.433 346.259 503.295 346.575 505.072 347.179C527.459 354.53 521.564 387.954 498.001 387.954H440.092C435.996 387.966 431.94 387.151 428.167 385.558C424.394 383.965 420.981 381.627 418.132 378.685C415.283 375.742 413.058 372.254 411.589 368.431C410.12 364.608 409.437 360.528 409.582 356.435C409.591 356.214 409.602 355.993 409.614 355.771Z" fill="#4D868D"/>
<path d="M462.397 355.07V336.649H452.478V355.07H444.559L450.998 366.224L457.438 377.377L463.877 366.224L470.316 355.07H462.397Z" fill="white"/>
</svg>
