<svg width="143" height="35" viewBox="0 0 143 35" fill="none" xmlns="http://www.w3.org/2000/svg">
<path d="M15.136 22.288V16.528H24.64V33.472C20.064 34.208 16.352 34.576 13.504 34.576C8.416 34.576 4.912 33.216 2.992 30.496C1.104 27.776 0.160004 23.456 0.160004 17.536C0.160004 11.616 1.152 7.34403 3.136 4.72003C5.12 2.09603 8.496 0.784025 13.264 0.784025C16.24 0.784025 19.456 1.12003 22.912 1.79203L24.64 2.12803L24.448 7.26402C20.608 6.84802 17.456 6.64002 14.992 6.64002C12.56 6.64002 10.848 6.92802 9.856 7.50402C8.864 8.08002 8.128 9.15203 7.648 10.72C7.2 12.256 6.976 14.912 6.976 18.688C6.976 22.432 7.44 25.056 8.368 26.56C9.296 28.064 11.216 28.816 14.128 28.816L18.112 28.624V22.288H15.136Z" fill="#232B2D"/>
<path d="M48.7038 17.488V27.472C48.7678 28.24 48.8958 28.784 49.0878 29.104C49.2798 29.392 49.6798 29.6 50.2878 29.728L50.0958 34.576C48.4638 34.576 47.1518 34.464 46.1598 34.24C45.1998 34.016 44.2238 33.568 43.2318 32.896C40.9278 34.016 38.5758 34.576 36.1758 34.576C31.2158 34.576 28.7358 31.952 28.7358 26.704C28.7358 24.144 29.4238 22.336 30.7998 21.28C32.1758 20.192 34.2878 19.552 37.1358 19.36L42.2718 18.976V17.488C42.2718 16.496 42.0478 15.824 41.5998 15.472C41.1518 15.088 40.4318 14.896 39.4398 14.896L30.4158 15.28L30.2238 10.816C33.6478 9.88803 36.8958 9.42403 39.9678 9.42403C43.0718 9.42403 45.2958 10.064 46.6398 11.344C48.0158 12.624 48.7038 14.672 48.7038 17.488ZM37.9038 23.824C36.1118 23.984 35.2158 24.944 35.2158 26.704C35.2158 28.464 35.9998 29.344 37.5678 29.344C38.7838 29.344 40.1118 29.152 41.5518 28.768L42.2718 28.576V23.44L37.9038 23.824Z" fill="#232B2D"/>
<path d="M66.4514 9.42403C69.8114 9.42403 72.2594 10.352 73.7954 12.208C75.3634 14.032 76.1474 17.312 76.1474 22.048C76.1474 26.784 75.2514 30.064 73.4594 31.888C71.6674 33.68 68.5794 34.576 64.1954 34.576C62.8194 34.576 60.3074 34.416 56.6594 34.096L54.8354 33.904V0.400024H61.2674V10.72C63.3154 9.85603 65.0434 9.42403 66.4514 9.42403ZM64.1954 28.816C66.3394 28.816 67.7794 28.304 68.5154 27.28C69.2514 26.224 69.6194 24.352 69.6194 21.664C69.6194 17.344 68.2754 15.184 65.5874 15.184C64.3074 15.184 63.0914 15.344 61.9394 15.664L61.2674 15.808V28.624C62.7394 28.752 63.7154 28.816 64.1954 28.816Z" fill="#232B2D"/>
<path d="M80.9448 34V10H87.3288V12.544C90.0168 10.944 92.5768 9.90403 95.0088 9.42403V15.904C92.4168 16.448 90.1928 17.008 88.3368 17.584L87.3768 17.92V34H80.9448Z" fill="#232B2D"/>
<path d="M98.8041 34V10H105.236V34H98.8041ZM98.8041 6.92803V0.400024H105.236V6.92803H98.8041Z" fill="#232B2D"/>
<path d="M116.459 24.736C116.491 26.208 116.875 27.28 117.611 27.952C118.379 28.592 119.467 28.912 120.875 28.912C123.851 28.912 126.507 28.816 128.843 28.624L130.187 28.48L130.283 33.232C126.603 34.128 123.275 34.576 120.299 34.576C116.683 34.576 114.059 33.616 112.427 31.696C110.795 29.776 109.979 26.656 109.979 22.336C109.979 13.728 113.515 9.42403 120.587 9.42403C127.563 9.42403 131.051 13.04 131.051 20.272L130.571 24.736H116.459ZM124.715 19.84C124.715 17.92 124.411 16.592 123.803 15.856C123.195 15.088 122.123 14.704 120.587 14.704C119.083 14.704 118.011 15.104 117.371 15.904C116.763 16.672 116.443 17.984 116.411 19.84H124.715Z" fill="#232B2D"/>
<path d="M135.936 34V0.400024H142.368V34H135.936Z" fill="#232B2D"/>
</svg>
