<svg width="444" height="323" viewBox="0 0 444 323" fill="none" xmlns="http://www.w3.org/2000/svg">
<g clip-path="url(#clip0_7_48)">
<path d="M258.629 56.9411C266.951 56.9411 273.696 50.1937 273.696 41.8704C273.696 33.5471 266.951 26.7997 258.629 26.7997C250.308 26.7997 243.562 33.5471 243.562 41.8704C243.562 50.1937 250.308 56.9411 258.629 56.9411Z" fill="#F2F2F2"/>
<path d="M375.51 280.608C397.906 263.546 408.602 234.875 401.906 207.524C401.739 206.845 401.564 206.167 401.379 205.49C396.939 189.255 385.956 173.825 369.947 168.638C356.506 164.282 341.834 167.631 327.812 165.899C300.285 162.499 278.943 140.221 263.927 116.896C248.911 93.5704 237.37 67.461 217.417 48.1909C184.527 16.4273 130.875 9.5886 90.0964 30.2643C49.3177 50.9401 23.342 96.8109 24.4498 142.527C25.5577 188.243 52.6908 231.951 92.0949 255.141C106.57 263.659 123.313 269.695 139.974 267.583C154.432 265.75 167.568 257.98 181.957 255.673C204.581 252.047 227.06 262.278 246.627 274.2C266.195 286.123 285.095 300.254 307.331 305.781C328.922 311.148 355.671 295.722 375.51 280.608Z" fill="#F2F2F2"/>
<path d="M343.333 31.2243C342.842 30.8969 342.345 30.5865 341.854 30.2704C327.663 21.192 312.452 13.8167 296.536 8.2971L292.845 59.2201H269.449V0.863548C267.977 0.558755 266.493 0.270896 265.008 -3.05176e-05V59.2201H237.205C221.9 59.2201 207.221 53.1384 196.398 42.313C185.575 31.4876 179.495 16.8052 179.495 1.49578C178.005 1.8175 176.527 2.16176 175.048 2.52864V59.2201H152.403L148.887 10.6621C132.531 16.9365 117.003 25.1876 102.649 35.2318C102.401 35.4011 102.152 35.5761 101.91 35.7454C100.663 36.6203 99.4324 37.5121 98.2079 38.4152V232.687H164.947L163.768 216.346L157.279 126.63H287.964L281.475 216.346L280.295 232.687H346.295V33.1885C345.313 32.5225 344.326 31.8678 343.333 31.2243ZM175.048 111.814H156.206L152.725 63.6678H175.048V111.814ZM265.008 111.814H233.363V110.86C233.363 110.401 233.272 109.947 233.097 109.524C232.921 109.1 232.664 108.715 232.339 108.391C232.015 108.067 231.63 107.811 231.206 107.636C230.782 107.461 230.328 107.371 229.87 107.372H216.112C215.654 107.371 215.201 107.462 214.777 107.637C214.354 107.812 213.97 108.069 213.646 108.393C213.322 108.717 213.065 109.101 212.89 109.525C212.715 109.948 212.625 110.402 212.625 110.86V111.814H179.495V63.6678H265.008V111.814ZM269.449 111.814V63.6678H292.524L289.042 111.814H269.449Z" fill="#3F3D56"/>
<path d="M-1.52588e-05 245.127C4.90217 250.937 10.2044 256.397 15.868 261.467L428.132 262.032C433.796 256.962 439.098 251.502 444 245.692L-1.52588e-05 245.127Z" fill="#3F3D56"/>
<path d="M279.57 192.805V241.179C279.57 241.795 279.815 242.386 280.251 242.822C280.687 243.258 281.278 243.503 281.894 243.504H353.562C354.178 243.503 354.769 243.258 355.205 242.822C355.641 242.386 355.886 241.795 355.887 241.179V192.805C355.885 192.189 355.64 191.599 355.204 191.163C354.768 190.728 354.178 190.483 353.562 190.482H281.894C281.278 190.483 280.688 190.728 280.252 191.163C279.816 191.599 279.571 192.189 279.57 192.805Z" fill="#3F3D56"/>
<path d="M281.251 193.407V240.582C281.251 240.911 281.382 241.227 281.615 241.46C281.848 241.693 282.164 241.824 282.493 241.825H352.966C353.295 241.824 353.61 241.693 353.843 241.46C354.076 241.227 354.207 240.911 354.208 240.582V193.407C354.208 193.077 354.077 192.761 353.844 192.527C353.611 192.294 353.295 192.162 352.966 192.161H282.493C282.163 192.162 281.847 192.294 281.615 192.527C281.382 192.761 281.251 193.077 281.251 193.407Z" fill="#495658"/>
<path d="M278.071 250.613C278.202 250.778 278.369 250.91 278.559 251.001C278.749 251.092 278.957 251.139 279.167 251.138H355.907C356.117 251.138 356.324 251.09 356.514 251C356.703 250.91 356.87 250.778 357.002 250.615C357.134 250.452 357.229 250.262 357.278 250.058C357.327 249.854 357.331 249.641 357.287 249.436L356.096 243.776C356.047 243.545 355.941 243.33 355.787 243.151C355.633 242.972 355.437 242.834 355.217 242.75C355.057 242.687 354.887 242.655 354.716 242.655H280.354C280.182 242.655 280.012 242.687 279.853 242.75C279.632 242.834 279.436 242.972 279.283 243.151C279.129 243.33 279.023 243.545 278.974 243.776L277.782 249.436C277.74 249.641 277.744 249.853 277.794 250.057C277.844 250.26 277.938 250.45 278.071 250.613Z" fill="#2F2E41"/>
<path d="M352.083 245.093H353.895C354.048 245.093 354.171 244.97 354.171 244.818V243.95C354.171 243.798 354.048 243.675 353.895 243.675H352.083C351.931 243.675 351.807 243.798 351.807 243.95V244.818C351.807 244.97 351.931 245.093 352.083 245.093Z" fill="#3F3D56"/>
<path d="M347.356 245.093H349.168C349.32 245.093 349.444 244.97 349.444 244.818V243.95C349.444 243.798 349.32 243.675 349.168 243.675H347.356C347.204 243.675 347.08 243.798 347.08 243.95V244.818C347.08 244.97 347.204 245.093 347.356 245.093Z" fill="#3F3D56"/>
<path d="M342.629 245.093H344.441C344.593 245.093 344.717 244.97 344.717 244.818V243.95C344.717 243.798 344.593 243.675 344.441 243.675H342.629C342.476 243.675 342.353 243.798 342.353 243.95V244.818C342.353 244.97 342.476 245.093 342.629 245.093Z" fill="#3F3D56"/>
<path d="M337.902 245.093H339.714C339.866 245.093 339.99 244.97 339.99 244.818V243.95C339.99 243.798 339.866 243.675 339.714 243.675H337.902C337.749 243.675 337.626 243.798 337.626 243.95V244.818C337.626 244.97 337.749 245.093 337.902 245.093Z" fill="#3F3D56"/>
<path d="M333.174 245.093H334.987C335.139 245.093 335.262 244.97 335.262 244.818V243.95C335.262 243.798 335.139 243.675 334.987 243.675H333.174C333.022 243.675 332.899 243.798 332.899 243.95V244.818C332.899 244.97 333.022 245.093 333.174 245.093Z" fill="#3F3D56"/>
<path d="M328.447 245.093H330.26C330.412 245.093 330.535 244.97 330.535 244.818V243.95C330.535 243.798 330.412 243.675 330.26 243.675H328.447C328.295 243.675 328.172 243.798 328.172 243.95V244.818C328.172 244.97 328.295 245.093 328.447 245.093Z" fill="#3F3D56"/>
<path d="M323.72 245.093H325.533C325.685 245.093 325.808 244.97 325.808 244.818V243.95C325.808 243.798 325.685 243.675 325.533 243.675H323.72C323.568 243.675 323.445 243.798 323.445 243.95V244.818C323.445 244.97 323.568 245.093 323.72 245.093Z" fill="#3F3D56"/>
<path d="M318.993 245.093H320.806C320.958 245.093 321.081 244.97 321.081 244.818V243.95C321.081 243.798 320.958 243.675 320.806 243.675H318.993C318.841 243.675 318.718 243.798 318.718 243.95V244.818C318.718 244.97 318.841 245.093 318.993 245.093Z" fill="#3F3D56"/>
<path d="M314.266 245.093H316.079C316.231 245.093 316.354 244.97 316.354 244.818V243.95C316.354 243.798 316.231 243.675 316.079 243.675H314.266C314.114 243.675 313.991 243.798 313.991 243.95V244.818C313.991 244.97 314.114 245.093 314.266 245.093Z" fill="#3F3D56"/>
<path d="M309.539 245.093H311.351C311.504 245.093 311.627 244.97 311.627 244.818V243.95C311.627 243.798 311.504 243.675 311.351 243.675H309.539C309.387 243.675 309.263 243.798 309.263 243.95V244.818C309.263 244.97 309.387 245.093 309.539 245.093Z" fill="#3F3D56"/>
<path d="M304.812 245.093H306.624C306.777 245.093 306.9 244.97 306.9 244.818V243.95C306.9 243.798 306.777 243.675 306.624 243.675H304.812C304.66 243.675 304.536 243.798 304.536 243.95V244.818C304.536 244.97 304.66 245.093 304.812 245.093Z" fill="#3F3D56"/>
<path d="M300.085 245.093H301.897C302.049 245.093 302.173 244.97 302.173 244.818V243.95C302.173 243.798 302.049 243.675 301.897 243.675H300.085C299.933 243.675 299.809 243.798 299.809 243.95V244.818C299.809 244.97 299.933 245.093 300.085 245.093Z" fill="#3F3D56"/>
<path d="M295.358 245.093H297.17C297.322 245.093 297.446 244.97 297.446 244.818V243.95C297.446 243.798 297.322 243.675 297.17 243.675H295.358C295.205 243.675 295.082 243.798 295.082 243.95V244.818C295.082 244.97 295.205 245.093 295.358 245.093Z" fill="#3F3D56"/>
<path d="M290.63 245.093H292.443C292.595 245.093 292.719 244.97 292.719 244.818V243.95C292.719 243.798 292.595 243.675 292.443 243.675H290.63C290.478 243.675 290.355 243.798 290.355 243.95V244.818C290.355 244.97 290.478 245.093 290.63 245.093Z" fill="#3F3D56"/>
<path d="M285.903 245.093H287.716C287.868 245.093 287.991 244.97 287.991 244.818V243.95C287.991 243.798 287.868 243.675 287.716 243.675H285.903C285.751 243.675 285.628 243.798 285.628 243.95V244.818C285.628 244.97 285.751 245.093 285.903 245.093Z" fill="#3F3D56"/>
<path d="M281.176 245.093H282.989C283.141 245.093 283.264 244.97 283.264 244.818V243.95C283.264 243.798 283.141 243.675 282.989 243.675H281.176C281.024 243.675 280.901 243.798 280.901 243.95V244.818C280.901 244.97 281.024 245.093 281.176 245.093Z" fill="#3F3D56"/>
<path d="M352.139 247.457H353.951C354.103 247.457 354.227 247.334 354.227 247.182V246.314C354.227 246.162 354.103 246.039 353.951 246.039H352.139C351.987 246.039 351.863 246.162 351.863 246.314V247.182C351.863 247.334 351.987 247.457 352.139 247.457Z" fill="#3F3D56"/>
<path d="M347.412 247.457H349.224C349.376 247.457 349.5 247.334 349.5 247.182V246.314C349.5 246.162 349.376 246.039 349.224 246.039H347.412C347.259 246.039 347.136 246.162 347.136 246.314V247.182C347.136 247.334 347.259 247.457 347.412 247.457Z" fill="#3F3D56"/>
<path d="M342.684 247.457H344.497C344.649 247.457 344.773 247.334 344.773 247.182V246.314C344.773 246.162 344.649 246.039 344.497 246.039H342.684C342.532 246.039 342.409 246.162 342.409 246.314V247.182C342.409 247.334 342.532 247.457 342.684 247.457Z" fill="#3F3D56"/>
<path d="M337.957 247.457H339.77C339.922 247.457 340.045 247.334 340.045 247.182V246.314C340.045 246.162 339.922 246.039 339.77 246.039H337.957C337.805 246.039 337.682 246.162 337.682 246.314V247.182C337.682 247.334 337.805 247.457 337.957 247.457Z" fill="#3F3D56"/>
<path d="M333.23 247.457H335.043C335.195 247.457 335.318 247.334 335.318 247.182V246.314C335.318 246.162 335.195 246.039 335.043 246.039H333.23C333.078 246.039 332.955 246.162 332.955 246.314V247.182C332.955 247.334 333.078 247.457 333.23 247.457Z" fill="#3F3D56"/>
<path d="M328.503 247.457H330.316C330.468 247.457 330.591 247.334 330.591 247.182V246.314C330.591 246.162 330.468 246.039 330.316 246.039H328.503C328.351 246.039 328.228 246.162 328.228 246.314V247.182C328.228 247.334 328.351 247.457 328.503 247.457Z" fill="#3F3D56"/>
<path d="M323.776 247.457H325.589C325.741 247.457 325.864 247.334 325.864 247.182V246.314C325.864 246.162 325.741 246.039 325.589 246.039H323.776C323.624 246.039 323.501 246.162 323.501 246.314V247.182C323.501 247.334 323.624 247.457 323.776 247.457Z" fill="#3F3D56"/>
<path d="M319.049 247.457H320.861C321.014 247.457 321.137 247.334 321.137 247.182V246.314C321.137 246.162 321.014 246.039 320.861 246.039H319.049C318.897 246.039 318.773 246.162 318.773 246.314V247.182C318.773 247.334 318.897 247.457 319.049 247.457Z" fill="#3F3D56"/>
<path d="M314.322 247.457H316.134C316.287 247.457 316.41 247.334 316.41 247.182V246.314C316.41 246.162 316.287 246.039 316.134 246.039H314.322C314.17 246.039 314.046 246.162 314.046 246.314V247.182C314.046 247.334 314.17 247.457 314.322 247.457Z" fill="#3F3D56"/>
<path d="M309.595 247.457H311.407C311.559 247.457 311.683 247.334 311.683 247.182V246.314C311.683 246.162 311.559 246.039 311.407 246.039H309.595C309.443 246.039 309.319 246.162 309.319 246.314V247.182C309.319 247.334 309.443 247.457 309.595 247.457Z" fill="#3F3D56"/>
<path d="M304.868 247.457H306.68C306.832 247.457 306.956 247.334 306.956 247.182V246.314C306.956 246.162 306.832 246.039 306.68 246.039H304.868C304.715 246.039 304.592 246.162 304.592 246.314V247.182C304.592 247.334 304.715 247.457 304.868 247.457Z" fill="#3F3D56"/>
<path d="M300.141 247.457H301.953C302.105 247.457 302.229 247.334 302.229 247.182V246.314C302.229 246.162 302.105 246.039 301.953 246.039H300.141C299.988 246.039 299.865 246.162 299.865 246.314V247.182C299.865 247.334 299.988 247.457 300.141 247.457Z" fill="#3F3D56"/>
<path d="M295.413 247.457H297.226C297.378 247.457 297.501 247.334 297.501 247.182V246.314C297.501 246.162 297.378 246.039 297.226 246.039H295.413C295.261 246.039 295.138 246.162 295.138 246.314V247.182C295.138 247.334 295.261 247.457 295.413 247.457Z" fill="#3F3D56"/>
<path d="M290.686 247.457H292.499C292.651 247.457 292.774 247.334 292.774 247.182V246.314C292.774 246.162 292.651 246.039 292.499 246.039H290.686C290.534 246.039 290.411 246.162 290.411 246.314V247.182C290.411 247.334 290.534 247.457 290.686 247.457Z" fill="#3F3D56"/>
<path d="M285.959 247.457H287.772C287.924 247.457 288.047 247.334 288.047 247.182V246.314C288.047 246.162 287.924 246.039 287.772 246.039H285.959C285.807 246.039 285.684 246.162 285.684 246.314V247.182C285.684 247.334 285.807 247.457 285.959 247.457Z" fill="#3F3D56"/>
<path d="M281.232 247.457H283.045C283.197 247.457 283.32 247.334 283.32 247.182V246.314C283.32 246.162 283.197 246.039 283.045 246.039H281.232C281.08 246.039 280.957 246.162 280.957 246.314V247.182C280.957 247.334 281.08 247.457 281.232 247.457Z" fill="#3F3D56"/>
<path d="M312.904 250.294H331.261C331.413 250.294 331.537 250.171 331.537 250.019V249.151C331.537 248.999 331.413 248.876 331.261 248.876H312.904C312.752 248.876 312.628 248.999 312.628 249.151V250.019C312.628 250.171 312.752 250.294 312.904 250.294Z" fill="#3F3D56"/>
<path d="M293.455 202.482H291.85C291.363 202.482 290.969 202.877 290.969 203.363C290.969 203.85 291.363 204.245 291.85 204.245H293.455C293.941 204.245 294.335 203.85 294.335 203.363C294.335 202.877 293.941 202.482 293.455 202.482Z" fill="white"/>
<path d="M311.807 202.482H310.203C309.716 202.482 309.322 202.877 309.322 203.363C309.322 203.85 309.716 204.245 310.203 204.245H311.807C312.294 204.245 312.688 203.85 312.688 203.363C312.688 202.877 312.294 202.482 311.807 202.482Z" fill="white"/>
<path d="M317.007 202.482H315.402C314.916 202.482 314.522 202.877 314.522 203.363C314.522 203.85 314.916 204.245 315.402 204.245H317.007C317.494 204.245 317.888 203.85 317.888 203.363C317.888 202.877 317.494 202.482 317.007 202.482Z" fill="white"/>
<path d="M306.815 202.335H296.842C296.355 202.335 295.961 202.73 295.961 203.217C295.961 203.703 296.355 204.098 296.842 204.098H306.815C307.302 204.098 307.696 203.703 307.696 203.217C307.696 202.73 307.302 202.335 306.815 202.335Z" fill="white"/>
<path d="M331.285 202.335H321.312C320.826 202.335 320.431 202.73 320.431 203.217C320.431 203.703 320.826 204.098 321.312 204.098H331.285C331.772 204.098 332.166 203.703 332.166 203.217C332.166 202.73 331.772 202.335 331.285 202.335Z" fill="white"/>
<path d="M298.349 206.46H296.744C296.257 206.46 295.863 206.854 295.863 207.341C295.863 207.827 296.257 208.222 296.744 208.222H298.349C298.835 208.222 299.23 207.827 299.23 207.341C299.23 206.854 298.835 206.46 298.349 206.46Z" fill="white"/>
<path d="M316.701 206.46H315.097C314.61 206.46 314.216 206.854 314.216 207.341C314.216 207.827 314.61 208.222 315.097 208.222H316.701C317.188 208.222 317.582 207.827 317.582 207.341C317.582 206.854 317.188 206.46 316.701 206.46Z" fill="white"/>
<path d="M321.901 206.46H320.296C319.81 206.46 319.416 206.854 319.416 207.341C319.416 207.827 319.81 208.222 320.296 208.222H321.901C322.388 208.222 322.782 207.827 322.782 207.341C322.782 206.854 322.388 206.46 321.901 206.46Z" fill="white"/>
<path d="M311.709 206.313H301.736C301.249 206.313 300.855 206.707 300.855 207.194C300.855 207.681 301.249 208.075 301.736 208.075H311.709C312.196 208.075 312.59 207.681 312.59 207.194C312.59 206.707 312.196 206.313 311.709 206.313Z" fill="white"/>
<path d="M336.179 206.313H326.206C325.72 206.313 325.325 206.707 325.325 207.194C325.325 207.681 325.72 208.075 326.206 208.075H336.179C336.666 208.075 337.06 207.681 337.06 207.194C337.06 206.707 336.666 206.313 336.179 206.313Z" fill="white"/>
<path d="M303.243 210.437H301.638C301.151 210.437 300.757 210.831 300.757 211.318C300.757 211.805 301.151 212.199 301.638 212.199H303.243C303.729 212.199 304.124 211.805 304.124 211.318C304.124 210.831 303.729 210.437 303.243 210.437Z" fill="white"/>
<path d="M321.595 210.437H319.991C319.504 210.437 319.11 210.831 319.11 211.318C319.11 211.805 319.504 212.199 319.991 212.199H321.595C322.082 212.199 322.476 211.805 322.476 211.318C322.476 210.831 322.082 210.437 321.595 210.437Z" fill="white"/>
<path d="M326.795 210.437H325.191C324.704 210.437 324.31 210.831 324.31 211.318C324.31 211.805 324.704 212.199 325.191 212.199H326.795C327.282 212.199 327.676 211.805 327.676 211.318C327.676 210.831 327.282 210.437 326.795 210.437Z" fill="white"/>
<path d="M316.603 210.29H306.63C306.143 210.29 305.749 210.685 305.749 211.171C305.749 211.658 306.143 212.052 306.63 212.052H316.603C317.09 212.052 317.484 211.658 317.484 211.171C317.484 210.685 317.09 210.29 316.603 210.29Z" fill="white"/>
<path d="M341.073 210.29H331.1C330.614 210.29 330.219 210.685 330.219 211.171C330.219 211.658 330.614 212.052 331.1 212.052H341.073C341.56 212.052 341.954 211.658 341.954 211.171C341.954 210.685 341.56 210.29 341.073 210.29Z" fill="white"/>
<path d="M308.137 214.414H306.532C306.045 214.414 305.651 214.809 305.651 215.295C305.651 215.782 306.045 216.177 306.532 216.177H308.137C308.623 216.177 309.018 215.782 309.018 215.295C309.018 214.809 308.623 214.414 308.137 214.414Z" fill="white"/>
<path d="M326.489 214.414H324.885C324.398 214.414 324.004 214.809 324.004 215.295C324.004 215.782 324.398 216.177 324.885 216.177H326.489C326.976 216.177 327.37 215.782 327.37 215.295C327.37 214.809 326.976 214.414 326.489 214.414Z" fill="white"/>
<path d="M331.689 214.414H330.085C329.598 214.414 329.204 214.809 329.204 215.295C329.204 215.782 329.598 216.177 330.085 216.177H331.689C332.176 216.177 332.57 215.782 332.57 215.295C332.57 214.809 332.176 214.414 331.689 214.414Z" fill="white"/>
<path d="M321.497 214.267H311.524C311.037 214.267 310.643 214.662 310.643 215.149C310.643 215.635 311.037 216.03 311.524 216.03H321.497C321.984 216.03 322.378 215.635 322.378 215.149C322.378 214.662 321.984 214.267 321.497 214.267Z" fill="white"/>
<path d="M311.807 230.23H310.203C309.716 230.23 309.322 230.624 309.322 231.111C309.322 231.598 309.716 231.992 310.203 231.992H311.807C312.294 231.992 312.688 231.598 312.688 231.111C312.688 230.624 312.294 230.23 311.807 230.23Z" fill="white"/>
<path d="M317.007 230.23H315.402C314.916 230.23 314.522 230.624 314.522 231.111C314.522 231.598 314.916 231.992 315.402 231.992H317.007C317.494 231.992 317.888 231.598 317.888 231.111C317.888 230.624 317.494 230.23 317.007 230.23Z" fill="white"/>
<path d="M331.285 230.377H321.312C320.826 230.377 320.431 230.771 320.431 231.258C320.431 231.745 320.826 232.139 321.312 232.139H331.285C331.772 232.139 332.166 231.745 332.166 231.258C332.166 230.771 331.772 230.377 331.285 230.377Z" fill="white"/>
<path d="M293.455 230.23H291.85C291.363 230.23 290.969 230.624 290.969 231.111C290.969 231.598 291.363 231.992 291.85 231.992H293.455C293.941 231.992 294.335 231.598 294.335 231.111C294.335 230.624 293.941 230.23 293.455 230.23Z" fill="white"/>
<path d="M306.815 230.377H296.842C296.355 230.377 295.961 230.771 295.961 231.258C295.961 231.745 296.355 232.139 296.842 232.139H306.815C307.302 232.139 307.696 231.745 307.696 231.258C307.696 230.771 307.302 230.377 306.815 230.377Z" fill="white"/>
<path d="M298.349 226.253H296.744C296.257 226.253 295.863 226.647 295.863 227.134C295.863 227.62 296.257 228.015 296.744 228.015H298.349C298.835 228.015 299.23 227.62 299.23 227.134C299.23 226.647 298.835 226.253 298.349 226.253Z" fill="white"/>
<path d="M316.701 226.253H315.097C314.61 226.253 314.216 226.647 314.216 227.134C314.216 227.62 314.61 228.015 315.097 228.015H316.701C317.188 228.015 317.582 227.62 317.582 227.134C317.582 226.647 317.188 226.253 316.701 226.253Z" fill="white"/>
<path d="M321.901 226.253H320.296C319.81 226.253 319.416 226.647 319.416 227.134C319.416 227.62 319.81 228.015 320.296 228.015H321.901C322.388 228.015 322.782 227.62 322.782 227.134C322.782 226.647 322.388 226.253 321.901 226.253Z" fill="white"/>
<path d="M311.709 226.4H301.736C301.249 226.4 300.855 226.794 300.855 227.281C300.855 227.767 301.249 228.162 301.736 228.162H311.709C312.196 228.162 312.59 227.767 312.59 227.281C312.59 226.794 312.196 226.4 311.709 226.4Z" fill="white"/>
<path d="M303.243 222.275H301.638C301.151 222.275 300.757 222.67 300.757 223.156C300.757 223.643 301.151 224.038 301.638 224.038H303.243C303.729 224.038 304.124 223.643 304.124 223.156C304.124 222.67 303.729 222.275 303.243 222.275Z" fill="white"/>
<path d="M321.595 222.275H319.991C319.504 222.275 319.11 222.67 319.11 223.156C319.11 223.643 319.504 224.038 319.991 224.038H321.595C322.082 224.038 322.476 223.643 322.476 223.156C322.476 222.67 322.082 222.275 321.595 222.275Z" fill="white"/>
<path d="M326.795 222.275H325.191C324.704 222.275 324.31 222.67 324.31 223.156C324.31 223.643 324.704 224.038 325.191 224.038H326.795C327.282 224.038 327.676 223.643 327.676 223.156C327.676 222.67 327.282 222.275 326.795 222.275Z" fill="white"/>
<path d="M316.603 222.422H306.63C306.143 222.422 305.749 222.817 305.749 223.303C305.749 223.79 306.143 224.184 306.63 224.184H316.603C317.09 224.184 317.484 223.79 317.484 223.303C317.484 222.817 317.09 222.422 316.603 222.422Z" fill="white"/>
<path d="M308.137 218.298H306.532C306.045 218.298 305.651 218.692 305.651 219.179C305.651 219.666 306.045 220.06 306.532 220.06H308.137C308.623 220.06 309.018 219.666 309.018 219.179C309.018 218.692 308.623 218.298 308.137 218.298Z" fill="white"/>
<path d="M326.489 218.298H324.885C324.398 218.298 324.004 218.692 324.004 219.179C324.004 219.666 324.398 220.06 324.885 220.06H326.489C326.976 220.06 327.37 219.666 327.37 219.179C327.37 218.692 326.976 218.298 326.489 218.298Z" fill="white"/>
<path d="M331.689 218.298H330.085C329.598 218.298 329.204 218.692 329.204 219.179C329.204 219.666 329.598 220.06 330.085 220.06H331.689C332.176 220.06 332.57 219.666 332.57 219.179C332.57 218.692 332.176 218.298 331.689 218.298Z" fill="white"/>
<path d="M321.497 218.445H311.524C311.037 218.445 310.643 218.839 310.643 219.326C310.643 219.813 311.037 220.207 311.524 220.207H321.497C321.984 220.207 322.378 219.813 322.378 219.326C322.378 218.839 321.984 218.445 321.497 218.445Z" fill="white"/>
<path d="M284.923 276.843L277.39 264.933L301.035 246.079L310.795 235.264C312.063 233.859 313.677 232.811 315.477 232.226C317.277 231.64 319.198 231.537 321.05 231.928C322.902 232.318 324.619 233.187 326.029 234.449C327.44 235.711 328.495 237.321 329.088 239.118C329.968 241.781 329.779 244.682 328.561 247.209C327.343 249.735 325.191 251.689 322.559 252.659L307.126 258.346L284.923 276.843Z" fill="#B47171"/>
<path d="M108.17 190.485V248.373H148.715V190.485C148.715 190.068 148.583 189.663 148.336 189.327C148.089 188.992 147.741 188.745 147.344 188.622C147.156 188.56 146.96 188.53 146.762 188.532H110.128C109.871 188.531 109.617 188.581 109.38 188.679C109.142 188.777 108.926 188.921 108.744 189.102C108.563 189.284 108.418 189.499 108.32 189.736C108.221 189.973 108.17 190.228 108.17 190.485ZM123.993 210.375C124.004 209.234 124.464 208.143 125.275 207.34C126.085 206.537 127.18 206.086 128.321 206.086C129.462 206.086 130.557 206.537 131.367 207.34C132.178 208.143 132.639 209.234 132.649 210.375V217.092C132.643 218.236 132.185 219.332 131.374 220.139C130.563 220.946 129.465 221.399 128.321 221.399C127.177 221.399 126.079 220.946 125.268 220.139C124.457 219.332 123.999 218.236 123.993 217.092V210.375Z" fill="#2F2E41"/>
<path d="M108.046 246.521V252.104C108.047 252.393 108.162 252.67 108.366 252.875C108.569 253.08 108.846 253.196 109.135 253.199H147.75C148.039 253.197 148.316 253.081 148.52 252.876C148.724 252.671 148.839 252.393 148.839 252.104V246.521H108.046Z" fill="#3F3D56"/>
<path d="M44.3876 103.269V208.964C44.3886 210.311 44.9241 211.602 45.8763 212.555C46.8285 213.507 48.1196 214.043 49.4662 214.044H206.059C207.405 214.043 208.696 213.507 209.649 212.555C210.601 211.602 211.136 210.311 211.137 208.964V103.269C211.134 101.923 210.598 100.633 209.646 99.6823C208.694 98.7312 207.404 98.1963 206.059 98.1945H49.4662C48.1208 98.1963 46.8309 98.7312 45.879 99.6823C44.9271 100.633 44.3908 101.923 44.3876 103.269Z" fill="#3F3D56"/>
<path d="M48.0612 104.584V207.66C48.0624 208.38 48.3488 209.07 48.8575 209.579C49.3663 210.087 50.0559 210.374 50.7754 210.375H204.755C205.475 210.374 206.164 210.087 206.673 209.579C207.182 209.07 207.468 208.38 207.469 207.66V104.584C207.469 103.863 207.184 103.172 206.675 102.662C206.166 102.152 205.475 101.865 204.755 101.863H50.7754C50.0551 101.865 49.3647 102.152 48.8559 102.662C48.347 103.172 48.0612 103.863 48.0612 104.584Z" fill="white"/>
<path d="M76.6371 252.82C76.7939 253.017 76.9931 253.175 77.2198 253.284C77.4466 253.392 77.695 253.448 77.9463 253.447H169.554C169.805 253.447 170.052 253.39 170.278 253.282C170.504 253.175 170.704 253.018 170.861 252.823C171.019 252.628 171.132 252.401 171.191 252.157C171.249 251.914 171.253 251.66 171.202 251.415L169.78 244.659C169.721 244.383 169.594 244.127 169.411 243.913C169.227 243.699 168.994 243.534 168.73 243.434C168.54 243.359 168.337 243.321 168.132 243.321H79.3627C79.158 243.321 78.9551 243.359 78.7645 243.434C78.5013 243.534 78.2674 243.699 78.0841 243.913C77.9008 244.127 77.7739 244.383 77.7149 244.659L76.2929 251.415C76.2423 251.66 76.247 251.913 76.3065 252.156C76.3661 252.4 76.479 252.626 76.6371 252.82Z" fill="#2F2E41"/>
<path d="M199.758 116.063H55.6798C55.53 116.059 55.3875 115.997 55.2828 115.89C55.1781 115.783 55.1194 115.639 55.1194 115.489C55.1194 115.34 55.1781 115.196 55.2828 115.089C55.3875 114.982 55.53 114.92 55.6798 114.916H199.758C199.908 114.92 200.05 114.982 200.155 115.089C200.26 115.196 200.318 115.34 200.318 115.489C200.318 115.639 200.26 115.783 200.155 115.89C200.05 115.997 199.908 116.059 199.758 116.063Z" fill="#3F3D56"/>
<path d="M65.4874 111.99C67.3418 111.99 68.8452 110.453 68.8452 108.557C68.8452 106.661 67.3418 105.123 65.4874 105.123C63.6329 105.123 62.1296 106.661 62.1296 108.557C62.1296 110.453 63.6329 111.99 65.4874 111.99Z" fill="#3F3D56"/>
<path d="M77.0871 111.99C78.9416 111.99 80.4449 110.453 80.4449 108.557C80.4449 106.661 78.9416 105.123 77.0871 105.123C75.2326 105.123 73.7293 106.661 73.7293 108.557C73.7293 110.453 75.2326 111.99 77.0871 111.99Z" fill="#3F3D56"/>
<path d="M88.6868 111.99C90.5413 111.99 92.0446 110.453 92.0446 108.557C92.0446 106.661 90.5413 105.123 88.6868 105.123C86.8323 105.123 85.329 106.661 85.329 108.557C85.329 110.453 86.8323 111.99 88.6868 111.99Z" fill="#3F3D56"/>
<path d="M192.773 105.972H184.534C184.371 105.976 184.217 106.044 184.103 106.16C183.989 106.277 183.925 106.433 183.925 106.596C183.925 106.759 183.989 106.916 184.103 107.032C184.217 107.149 184.371 107.216 184.534 107.22H192.773C192.937 107.217 193.093 107.151 193.208 107.034C193.323 106.917 193.388 106.76 193.388 106.596C193.388 106.432 193.323 106.275 193.208 106.158C193.093 106.041 192.937 105.975 192.773 105.972Z" fill="#3F3D56"/>
<path d="M192.773 108.315H184.534C184.371 108.318 184.216 108.386 184.102 108.502C183.988 108.619 183.924 108.775 183.924 108.938C183.924 109.102 183.988 109.258 184.102 109.375C184.216 109.491 184.371 109.559 184.534 109.562H192.773C192.937 109.56 193.094 109.494 193.209 109.377C193.324 109.26 193.389 109.103 193.389 108.938C193.389 108.774 193.324 108.617 193.209 108.5C193.094 108.383 192.937 108.317 192.773 108.315Z" fill="#3F3D56"/>
<path d="M192.773 110.657H184.534C184.371 110.661 184.217 110.728 184.103 110.845C183.989 110.961 183.925 111.118 183.925 111.281C183.925 111.444 183.989 111.6 184.103 111.717C184.217 111.833 184.371 111.901 184.534 111.905H192.773C192.937 111.902 193.093 111.835 193.208 111.719C193.323 111.602 193.388 111.445 193.388 111.281C193.388 111.117 193.323 110.96 193.208 110.843C193.093 110.726 192.937 110.659 192.773 110.657Z" fill="#3F3D56"/>
<path d="M391.394 248.971C391.642 249.695 392.114 250.322 392.741 250.761C393.368 251.2 394.118 251.429 394.883 251.416L409.832 251.031C410.603 251.016 411.348 250.752 411.957 250.278C412.565 249.804 413.004 249.146 413.207 248.402L415.323 225.776C416.073 226.116 416.89 226.284 417.714 226.267C418.43 226.249 419.135 226.091 419.789 225.8C420.444 225.51 421.035 225.093 421.528 224.574C422.021 224.055 422.408 223.444 422.665 222.776C422.922 222.107 423.045 221.395 423.027 220.679C423.01 219.963 422.851 219.258 422.56 218.603C422.27 217.949 421.853 217.358 421.334 216.864C420.816 216.371 420.205 215.985 419.537 215.727C418.868 215.47 418.156 215.347 417.441 215.365C417.111 215.363 416.783 215.398 416.461 215.466C416.111 215.088 415.685 214.786 415.211 214.582C414.738 214.377 414.226 214.274 413.71 214.279L390.715 214.873C390.524 214.88 390.334 214.904 390.148 214.944C389.643 215.038 389.165 215.239 388.745 215.533C388.325 215.828 387.973 216.209 387.712 216.651C387.452 217.093 387.289 217.585 387.235 218.096C387.18 218.606 387.236 219.122 387.398 219.609L391.394 248.971ZM415.756 224.24L417.262 218.848C417.433 218.225 417.437 217.568 417.273 216.943C417.346 216.943 417.411 216.908 417.484 216.908C418.516 216.887 419.515 217.276 420.26 217.99C421.006 218.703 421.439 219.684 421.463 220.716C421.487 221.749 421.101 222.749 420.389 223.497C419.678 224.245 418.698 224.68 417.666 224.707C416.999 224.728 416.339 224.566 415.756 224.24Z" fill="#2F2E41"/>
<path d="M390.148 214.944C390.638 217.746 396.146 219.715 402.769 219.373C408.859 219.092 413.839 216.953 414.751 214.418C414.413 214.318 414.062 214.272 413.71 214.279L390.715 214.873C390.524 214.88 390.334 214.904 390.148 214.944Z" fill="#3F3D56"/>
<path d="M403.983 236.538C404.013 236.53 404.042 236.517 404.068 236.5L407.314 234.375C407.353 234.349 407.386 234.314 407.408 234.273C407.43 234.232 407.442 234.186 407.442 234.139C407.442 234.092 407.43 234.046 407.408 234.005C407.386 233.963 407.354 233.928 407.314 233.903L403.94 231.692C403.909 231.672 403.874 231.657 403.838 231.65C403.801 231.643 403.764 231.644 403.728 231.651C403.691 231.659 403.657 231.673 403.626 231.694C403.595 231.715 403.569 231.742 403.549 231.773C403.528 231.804 403.514 231.839 403.507 231.875C403.5 231.912 403.501 231.949 403.508 231.985C403.516 232.022 403.531 232.056 403.552 232.087C403.573 232.118 403.6 232.144 403.631 232.164L406.645 234.138L403.759 236.028C403.703 236.065 403.662 236.12 403.643 236.184C403.624 236.248 403.628 236.317 403.655 236.378C403.682 236.439 403.729 236.488 403.789 236.518C403.849 236.547 403.918 236.554 403.983 236.538Z" fill="#B8C8CB"/>
<path d="M398.855 236.774C398.909 236.761 398.959 236.731 398.996 236.689C399.033 236.647 399.058 236.595 399.065 236.539C399.073 236.483 399.064 236.427 399.039 236.376C399.014 236.326 398.975 236.284 398.926 236.256L395.934 234.54L398.826 232.391C398.856 232.369 398.881 232.341 398.9 232.309C398.919 232.278 398.931 232.242 398.937 232.206C398.942 232.169 398.94 232.132 398.931 232.096C398.922 232.06 398.906 232.026 398.884 231.996C398.862 231.967 398.834 231.942 398.802 231.923C398.771 231.904 398.736 231.891 398.699 231.886C398.662 231.88 398.625 231.882 398.589 231.891C398.553 231.9 398.519 231.916 398.49 231.938L395.251 234.344C395.214 234.372 395.184 234.409 395.164 234.451C395.144 234.494 395.135 234.541 395.138 234.587C395.141 234.634 395.155 234.679 395.18 234.719C395.204 234.759 395.238 234.792 395.279 234.815L398.645 236.746C398.709 236.782 398.784 236.792 398.855 236.774Z" fill="#B8C8CB"/>
<path d="M403.66 238.4C403.687 238.394 403.713 238.383 403.737 238.368C403.769 238.349 403.796 238.323 403.818 238.293C403.84 238.263 403.856 238.229 403.865 238.193C403.873 238.157 403.875 238.12 403.869 238.083C403.864 238.047 403.851 238.012 403.832 237.98L399.229 230.412C399.19 230.348 399.128 230.302 399.055 230.285C398.982 230.267 398.906 230.279 398.842 230.318C398.778 230.357 398.732 230.42 398.714 230.492C398.697 230.565 398.708 230.642 398.747 230.706L403.349 238.274C403.381 238.325 403.428 238.365 403.484 238.388C403.54 238.411 403.601 238.415 403.66 238.4Z" fill="#B8C8CB"/>
<path d="M144.934 147.219H119.997C118.98 147.219 118.155 148.044 118.155 149.061V151.498C118.155 152.516 118.98 153.341 119.997 153.341H144.934C145.951 153.341 146.776 152.516 146.776 151.498V149.061C146.776 148.044 145.951 147.219 144.934 147.219Z" fill="#495658"/>
<path d="M159.469 159.462H105.462C104.444 159.462 103.62 160.287 103.62 161.305V163.741C103.62 164.759 104.444 165.584 105.462 165.584H159.469C160.486 165.584 161.311 164.759 161.311 163.741V161.305C161.311 160.287 160.486 159.462 159.469 159.462Z" fill="#E6E6E6"/>
<path d="M159.469 171.705H105.462C104.444 171.705 103.62 172.53 103.62 173.548V175.985C103.62 177.002 104.444 177.827 105.462 177.827H159.469C160.486 177.827 161.311 177.002 161.311 175.985V173.548C161.311 172.53 160.486 171.705 159.469 171.705Z" fill="#E6E6E6"/>
<path d="M164.047 212.703L164.17 213.09L164.176 213.103L167.858 224.3L172.094 237.203L180.063 261.452L180.141 265.219V265.232L180.733 295.533L179.091 299.641L180.939 306.376C180.939 306.376 180.089 296.195 175.532 302.042C172.95 305.364 169.931 308.764 167.453 311.951C171.064 313.413 174.733 314.735 178.461 315.917C179.265 316.175 180.076 316.42 180.887 316.664C181.061 316.716 181.235 316.767 181.409 316.819C193.764 320.473 206.537 322.527 219.415 322.929C220.084 322.949 220.741 322.961 221.378 322.974C221.603 322.981 221.822 322.987 222.041 322.987C222.762 322.994 223.477 323 224.198 323C225.652 323 227.101 322.979 228.543 322.936C239.216 322.635 249.826 321.199 260.195 318.654C260.124 314.372 259.931 309.369 259.654 304.025C259.526 301.404 256.635 298.565 256.461 295.822C256.339 293.761 258.933 291.823 258.798 289.731C257.923 276.846 256.828 281.792 256.017 272.668C255.934 271.773 255.856 270.917 255.786 270.099C255.264 264.24 254.904 260.576 254.904 260.576L258.367 238.742L263.806 204.462L263.388 203.773L262.918 203.541L234.227 189.337L232.669 185.345C232.215 184.195 231.428 183.207 230.408 182.508C229.388 181.809 228.183 181.432 226.946 181.424L208.046 181.346C207.066 181.342 206.098 181.571 205.223 182.016C204.349 182.461 203.593 183.107 203.019 183.903L197.901 190.992L164.047 212.703Z" fill="#3F3D56"/>
<path d="M184.422 256.056L180.141 265.219L177.218 271.477L172.191 297.806L169.674 300.478L167.517 291.018L144.947 296.031C144.206 291.917 144.748 296.17 144.291 291.657C144.42 291.528 144.555 291.399 144.69 291.27C145.051 290.935 145.353 290.62 145.347 290.317C145.09 274.748 145.862 248.252 152.312 232.2C153.322 229.579 154.654 227.094 156.278 224.802C156.406 224.628 156.529 224.454 156.651 224.281C159.625 220.115 161.505 216.013 164.17 213.096V213.09C164.186 213.076 164.201 213.061 164.215 213.045C164.224 213.04 164.233 213.033 164.241 213.025L182.548 203.316L183.334 225.388L183.894 241.253L184.422 256.056Z" fill="#3F3D56"/>
<path d="M250.436 258.659L255.783 270.102L257.649 274.088L262.675 300.414L265.184 303.079L267.346 293.622L268.361 293.414L286.677 289.62L292.016 306.579C293.219 304.573 293.693 302.214 293.358 299.899C293.023 297.585 291.899 295.457 290.176 293.876C289.811 293.546 289.507 293.225 289.516 292.921C289.82 274.609 288.7 241.172 278.587 227.409C275.375 223.042 273.448 218.692 270.644 215.653C270.636 215.644 270.636 215.636 270.627 215.636L263.804 204.461L263.387 203.775L262.919 203.541L250.436 258.659Z" fill="#3F3D56"/>
<path d="M218.042 175.966C231.929 175.966 243.186 164.706 243.186 150.816C243.186 136.926 231.929 125.666 218.042 125.666C204.156 125.666 192.898 136.926 192.898 150.816C192.898 164.706 204.156 175.966 218.042 175.966Z" fill="#B47171"/>
<path d="M252.028 133.249C251.833 133.041 251.598 132.874 251.337 132.759C251.076 132.643 250.795 132.582 250.51 132.577L250.888 131.528C251.011 131.197 251.044 130.839 250.984 130.492C250.924 130.144 250.772 129.818 250.545 129.548C250.318 129.278 250.023 129.074 249.69 128.955C249.358 128.837 249 128.809 248.653 128.875L247.276 129.14L247.406 128.22C247.456 127.877 247.415 127.528 247.289 127.205C247.163 126.883 246.955 126.599 246.685 126.381C246.416 126.164 246.095 126.02 245.753 125.964C245.411 125.909 245.061 125.943 244.737 126.064C244.442 126.18 244.124 126.229 243.808 126.206C243.492 126.184 243.184 126.091 242.908 125.934C242.632 125.782 242.391 125.572 242.204 125.317C242.017 125.063 241.888 124.77 241.825 124.461L241.345 122.147L241.295 122.023C238.958 118.128 234.467 115.294 228.97 114.256C224.078 113.325 219.061 113.799 214.225 114.245C212.307 114.425 210.14 114.628 208.334 115.735C206.799 116.683 205.501 118.579 205.766 120.493C200.998 119.031 195.886 121.949 193.352 125.629C190.35 130.009 189.859 135.495 189.78 139.785C189.566 149.934 191.659 158.236 195.987 164.468C196.303 164.919 196.382 165.862 197.009 166.178L196.879 165.969C197.579 166.319 198.29 166.883 198.024 167.487C197.263 169.226 202.324 173.07 205.891 174.34C212.397 176.659 221.048 176.462 227.131 175.627L227.345 174.187C229.54 173.888 231.086 173.318 231.521 172.426C232.288 171.771 232.943 171.184 233.513 170.643L233.519 170.637C233.53 170.626 233.552 170.609 233.564 170.597C236.312 167.962 236.949 166.46 237.237 164.174C237.514 161.933 237.023 159.659 236.521 157.61C247.096 159.247 232.356 146.344 242.209 143.849C242.322 143.814 242.437 143.786 242.553 143.764C242.841 143.697 243.129 143.629 243.405 143.55C244.738 143.188 246.014 142.643 247.197 141.93C249.951 140.254 250.859 138.03 252.281 135.524C252.487 135.167 252.573 134.754 252.527 134.345C252.481 133.936 252.306 133.552 252.028 133.249Z" fill="#2F2E41"/>
<path d="M306.973 260.449C306.967 261.437 306.956 262.82 306.911 264.53C306.905 264.767 306.9 265.01 306.894 265.258C306.821 268.402 306.747 271.038 306.629 273.967C306.623 274.171 306.618 274.368 306.606 274.571C306.448 278.658 306.2 283.416 305.771 290.951C304.975 304.87 303.587 292.864 302.193 297.747C302.126 297.99 302.052 298.277 301.985 298.616C301.774 299.845 301.418 301.044 300.924 302.189C300.185 302.629 299.423 303.052 298.672 303.476C296.534 304.667 294.361 305.813 292.172 306.902C290.941 307.511 289.706 308.11 288.464 308.685C288.267 308.776 288.075 308.866 287.883 308.951C281.526 311.892 274.974 314.393 268.274 316.435C266.964 316.83 265.661 317.214 264.341 317.57C262.964 317.953 261.587 318.315 260.193 318.653C249.824 321.199 239.214 322.636 228.542 322.937C227.103 322.983 225.652 322.999 224.196 322.999C223.474 322.999 222.763 322.994 222.041 322.988C221.821 322.988 221.601 322.983 221.381 322.977C220.743 322.96 220.083 322.949 219.417 322.932C206.539 322.53 193.766 320.476 181.411 316.819L180.887 316.667C180.074 316.418 179.267 316.175 178.46 315.916C174.736 314.736 171.066 313.415 167.451 311.954C164.691 310.842 161.964 309.649 159.268 308.375C159.244 308.368 159.221 308.357 159.201 308.341C158.636 308.082 158.066 307.811 157.502 307.534C157.429 307.495 157.35 307.455 157.271 307.416C155.166 306.388 153.084 305.312 151.024 304.187C149.292 300.208 146.854 299.446 145.342 295.946C144.901 294.907 144.583 293.819 144.394 292.706C144.394 292.695 144.388 292.684 144.388 292.667C144.546 294.767 143.716 288.942 144.382 292.644C144.377 292.577 144.371 292.503 144.365 292.419C144.348 292.215 144.326 291.967 144.292 291.657C142.356 272.754 142.481 251.136 141.64 233.323C141.583 232.171 141.525 231.069 141.465 230.015C141.448 229.665 141.425 229.321 141.403 228.982C141.442 228.881 141.487 228.773 141.538 228.672C141.549 228.642 141.562 228.614 141.578 228.587C141.594 228.552 141.613 228.518 141.634 228.485C141.645 228.469 141.662 228.446 141.674 228.429C141.682 228.41 141.691 228.391 141.702 228.373C141.753 228.294 141.809 228.209 141.871 228.13C141.899 228.096 141.922 228.068 141.95 228.04C141.97 228.011 141.992 227.984 142.018 227.961C142.035 227.933 142.056 227.909 142.08 227.887C142.103 227.865 142.125 227.836 142.153 227.808C142.165 227.79 142.181 227.775 142.198 227.763C142.243 227.712 142.292 227.665 142.345 227.622C142.547 227.437 142.762 227.267 142.988 227.114C143.067 227.063 143.152 227.012 143.231 226.956C143.8 226.616 144.399 226.328 145.02 226.098C145.234 226.019 145.449 225.946 145.68 225.867C145.765 225.844 145.844 225.816 145.928 225.788C146.053 225.748 146.177 225.709 146.307 225.68C146.95 225.488 147.644 225.325 148.394 225.172C148.485 225.155 148.581 225.138 148.677 225.116C148.812 225.088 148.953 225.065 149.094 225.042C149.286 225.009 149.484 224.975 149.681 224.941C151.357 224.676 153.259 224.478 155.358 224.348C155.555 224.337 155.753 224.326 155.95 224.314C156.182 224.303 156.413 224.292 156.65 224.281C156.848 224.269 157.051 224.264 157.254 224.258C157.451 224.247 157.655 224.241 157.863 224.235C158.433 224.218 159.02 224.201 159.618 224.19C161.322 224.156 163.117 224.168 165.002 224.207C165.876 224.23 166.768 224.252 167.682 224.292C167.744 224.292 167.801 224.297 167.857 224.297C168.653 224.326 169.454 224.36 170.278 224.405C170.853 224.433 171.435 224.461 172.016 224.495C172.563 224.529 173.116 224.563 173.675 224.602C174.109 224.625 174.544 224.659 174.984 224.687C175.356 224.715 175.729 224.743 176.101 224.766L176.609 224.8C176.886 224.822 177.162 224.839 177.444 224.868C178.065 224.918 178.686 224.969 179.318 225.02C179.944 225.076 180.582 225.133 181.22 225.189C181.857 225.246 182.501 225.308 183.144 225.37C183.212 225.376 183.274 225.381 183.336 225.387C183.923 225.449 184.509 225.505 185.102 225.567C185.237 225.579 185.378 225.59 185.514 225.607C186.079 225.664 186.655 225.73 187.225 225.791C187.4 225.81 187.574 225.828 187.749 225.847C188.196 225.896 188.636 225.938 189.086 225.991C189.678 226.058 190.282 226.121 190.869 226.2C191.326 226.25 191.783 226.301 192.24 226.358C192.957 226.442 193.685 226.533 194.413 226.629C194.689 226.662 194.966 226.696 195.242 226.736C197.319 226.995 199.418 227.283 201.551 227.582C204.785 228.04 208.069 228.536 211.376 229.073C214.688 229.609 218.019 230.175 221.369 230.771C222.216 230.924 223.062 231.076 223.914 231.234C224.298 231.308 224.682 231.381 225.065 231.454C225.72 231.573 226.375 231.697 227.029 231.821C227.684 231.945 228.338 232.07 228.993 232.199C229.772 232.352 230.556 232.504 231.335 232.657C236.464 233.673 241.565 234.756 246.543 235.891C247.361 236.077 248.179 236.269 248.992 236.455C250.617 236.833 252.227 237.217 253.822 237.607C254.262 237.708 254.697 237.816 255.131 237.923C256.215 238.194 257.298 238.465 258.365 238.741L258.551 238.792C259.335 238.984 260.103 239.181 260.87 239.385C262.681 239.859 264.463 240.339 266.214 240.824C267.376 241.146 268.526 241.471 269.662 241.8C271.36 242.291 273.025 242.788 274.644 243.291C275.045 243.415 275.446 243.539 275.841 243.657C277.026 244.024 278.194 244.397 279.328 244.769C280.231 245.063 281.111 245.362 281.98 245.661C282.849 245.96 283.701 246.259 284.537 246.559C285.073 246.75 285.603 246.954 286.134 247.146C286.895 247.428 287.646 247.71 288.379 247.992C288.605 248.077 288.825 248.167 289.045 248.252C289.186 248.314 289.322 248.365 289.457 248.421C289.722 248.528 289.993 248.63 290.253 248.737C290.518 248.839 290.778 248.946 291.037 249.059C291.291 249.161 291.551 249.268 291.799 249.375C292.053 249.477 292.301 249.584 292.55 249.697C292.758 249.781 292.962 249.872 293.159 249.962C293.56 250.137 293.96 250.312 294.35 250.493C294.542 250.583 294.733 250.668 294.925 250.758L295.365 250.961C295.428 250.995 295.49 251.023 295.552 251.051C295.693 251.119 295.839 251.193 295.981 251.26C296.308 251.413 296.629 251.576 296.946 251.729C297.369 251.943 297.781 252.158 298.176 252.367C298.576 252.581 298.966 252.796 299.338 253.004C299.4 253.038 299.457 253.072 299.519 253.106C299.603 253.151 299.688 253.202 299.773 253.247C300.06 253.411 300.337 253.58 300.613 253.744C301.155 254.077 301.669 254.404 302.148 254.732C302.256 254.805 302.357 254.878 302.464 254.946C302.82 255.2 303.158 255.448 303.474 255.702C303.474 255.708 303.474 255.708 303.48 255.708C303.587 255.787 303.689 255.872 303.79 255.951C303.875 256.03 303.965 256.097 304.05 256.176C304.343 256.43 304.614 256.673 304.863 256.921C304.946 256.998 305.025 257.079 305.1 257.164C305.132 257.191 305.163 257.222 305.19 257.254C305.303 257.367 305.404 257.48 305.5 257.593C305.515 257.609 305.528 257.626 305.54 257.644C305.675 257.802 305.799 257.96 305.918 258.118C305.974 258.197 306.036 258.276 306.087 258.355C306.155 258.451 306.223 258.553 306.279 258.649C306.33 258.728 306.375 258.812 306.42 258.891C306.54 259.095 306.642 259.308 306.725 259.529C306.788 259.679 306.839 259.834 306.877 259.992C306.92 260.142 306.952 260.295 306.973 260.449Z" fill="#2F2E41"/>
<path opacity="0.2" d="M306.973 260.449C306.967 261.437 306.956 262.82 306.911 264.53C306.905 264.767 306.894 265.01 306.888 265.258C306.832 267.657 306.747 270.62 306.629 273.967C306.623 274.171 306.618 274.368 306.606 274.571C306.448 278.658 306.2 283.416 305.771 290.951C304.975 304.87 303.587 292.864 302.193 297.747C298.322 295.365 294.079 292.87 289.542 290.308C288.724 289.845 287.898 289.38 287.065 288.913C277.991 283.851 267.856 278.545 257.275 273.29C256.858 273.081 256.435 272.872 256.017 272.669C231.781 260.686 205.326 249.031 183.894 241.253C179.758 239.752 175.808 238.397 172.095 237.206C164.274 234.705 157.513 232.956 152.311 232.199C146.893 231.409 143.152 231.691 141.64 233.323C141.583 232.171 141.525 231.069 141.465 230.015C141.442 229.665 141.42 229.321 141.397 228.982C141.432 228.889 141.477 228.801 141.521 228.711C141.527 228.698 141.532 228.685 141.538 228.672C141.549 228.642 141.562 228.614 141.578 228.587C141.594 228.552 141.613 228.518 141.634 228.485C141.652 228.445 141.675 228.408 141.702 228.373C141.753 228.294 141.809 228.209 141.871 228.13C141.917 228.071 141.966 228.014 142.018 227.961C142.035 227.933 142.056 227.909 142.08 227.887C142.102 227.865 142.125 227.836 142.153 227.808C142.165 227.79 142.181 227.775 142.198 227.763C142.243 227.712 142.292 227.664 142.345 227.622C142.546 227.437 142.762 227.267 142.988 227.114C143.067 227.063 143.152 227.012 143.231 226.956C143.8 226.616 144.399 226.328 145.02 226.098C145.234 226.019 145.449 225.946 145.68 225.866C145.765 225.844 145.844 225.816 145.928 225.787C146.053 225.748 146.177 225.708 146.306 225.68C146.95 225.488 147.644 225.325 148.394 225.172C148.62 225.127 148.857 225.082 149.094 225.042C149.286 225.009 149.483 224.975 149.681 224.941C151.357 224.676 153.259 224.478 155.358 224.348C155.555 224.337 155.753 224.326 155.95 224.314C156.182 224.303 156.413 224.292 156.65 224.28C156.848 224.269 157.051 224.264 157.254 224.258C157.451 224.247 157.655 224.241 157.863 224.235C158.433 224.218 159.02 224.201 159.618 224.19C161.322 224.162 163.117 224.173 165.002 224.213C165.876 224.23 166.768 224.258 167.682 224.297C167.738 224.297 167.801 224.303 167.857 224.303C168.653 224.326 169.46 224.365 170.278 224.405C170.853 224.433 171.435 224.461 172.016 224.495C172.563 224.529 173.116 224.563 173.675 224.602C174.109 224.625 174.544 224.659 174.984 224.687C175.356 224.715 175.729 224.743 176.101 224.766C176.547 224.8 176.993 224.834 177.444 224.867C178.065 224.918 178.686 224.969 179.318 225.02C179.944 225.076 180.582 225.133 181.22 225.189C181.857 225.246 182.5 225.308 183.144 225.37C183.211 225.375 183.274 225.381 183.336 225.387C183.923 225.449 184.509 225.505 185.102 225.567C188.386 225.9 191.766 226.29 195.242 226.736C197.319 227.001 199.422 227.285 201.551 227.588C204.785 228.045 208.069 228.542 211.376 229.072C214.688 229.609 218.019 230.175 221.369 230.771C222.216 230.924 223.062 231.076 223.914 231.234C224.953 231.426 225.991 231.622 227.029 231.821C227.684 231.945 228.338 232.07 228.993 232.199C229.772 232.352 230.556 232.504 231.335 232.657C236.464 233.673 241.565 234.756 246.543 235.891C247.361 236.077 248.179 236.269 248.992 236.455C250.617 236.833 252.227 237.217 253.822 237.607C254.262 237.714 254.697 237.821 255.131 237.928C256.22 238.199 257.298 238.47 258.365 238.741V238.747C258.427 238.758 258.489 238.775 258.551 238.792C259.329 238.99 260.103 239.187 260.87 239.39C262.681 239.864 264.463 240.342 266.214 240.824C267.376 241.151 268.528 241.473 269.662 241.8C271.36 242.297 273.025 242.794 274.645 243.29C275.045 243.415 275.446 243.539 275.841 243.657C277.026 244.03 278.188 244.401 279.328 244.769C280.231 245.063 281.111 245.362 281.98 245.661C282.849 245.96 283.701 246.259 284.537 246.559C285.078 246.75 285.609 246.948 286.134 247.14C286.901 247.422 287.646 247.704 288.379 247.992C288.605 248.077 288.825 248.167 289.045 248.252C289.457 248.41 289.858 248.574 290.253 248.737C290.518 248.839 290.778 248.946 291.037 249.059C291.291 249.161 291.551 249.268 291.799 249.375C292.053 249.477 292.301 249.584 292.55 249.697C292.758 249.781 292.962 249.872 293.159 249.962C293.56 250.137 293.96 250.312 294.35 250.493C294.542 250.583 294.733 250.668 294.925 250.758L295.365 250.961C295.428 250.995 295.49 251.023 295.552 251.051C296.031 251.277 296.494 251.503 296.945 251.729C297.369 251.943 297.781 252.158 298.176 252.367C298.644 252.615 299.09 252.858 299.519 253.106C299.603 253.151 299.688 253.202 299.773 253.247C300.06 253.411 300.337 253.58 300.613 253.744C301.155 254.077 301.669 254.404 302.148 254.731C302.622 255.059 303.062 255.381 303.474 255.702C303.474 255.708 303.474 255.708 303.48 255.708C303.678 255.866 303.869 256.024 304.05 256.176C304.343 256.43 304.614 256.673 304.863 256.921C304.946 256.998 305.025 257.079 305.1 257.164C305.132 257.191 305.163 257.222 305.19 257.254C305.308 257.384 305.427 257.514 305.54 257.644C305.675 257.802 305.799 257.96 305.918 258.118C305.974 258.197 306.036 258.276 306.087 258.355C306.155 258.451 306.223 258.553 306.279 258.649C306.33 258.728 306.375 258.812 306.42 258.891C306.54 259.095 306.642 259.308 306.725 259.529C306.787 259.68 306.837 259.834 306.877 259.992C306.92 260.142 306.952 260.295 306.973 260.449Z" fill="black"/>
</g>
<defs>
<clipPath id="clip0_7_48">
<rect width="444" height="323" fill="white"/>
</clipPath>
</defs>
</svg>
